<?xml version="1.0" standalone="no"?>
<!DOCTYPE svg PUBLIC "-//W3C//DTD SVG 20010904//EN"
 "http://www.w3.org/TR/2001/REC-SVG-20010904/DTD/svg10.dtd">
<svg version="1.0" xmlns="http://www.w3.org/2000/svg"
 width="129.000000pt" height="31.000000pt" viewBox="0 0 129.000000 31.000000"
 preserveAspectRatio="xMidYMid meet">

<g transform="translate(0.000000,31.000000) scale(0.100000,-0.100000)"
fill="#000000" stroke="none">
<path d="M101 231 c-12 -21 -11 -21 144 -21 85 0 155 3 155 8 0 4 -5 14 -10
22 -7 12 -12 12 -22 2 -16 -16 -229 -17 -245 -1 -8 8 -14 5 -22 -10z"/>
<path d="M80 131 c0 -6 -15 -11 -32 -13 -29 -3 -33 -6 -33 -33 0 -30 1 -30 65
-36 36 -3 78 -11 93 -17 36 -15 107 -15 144 -1 15 6 55 14 88 18 56 6 60 8 63
34 2 19 -2 29 -15 33 -10 3 -26 10 -35 15 -23 12 -338 12 -338 0z"/>
</g>
</svg>
